<svg xmlns="http://www.w3.org/2000/svg" id="Layer_1" width="32" height="32" version="1" viewBox="0 0 32 32"><g id="g6888"><path id="path7" fill="#e64c65" d="M 32,16 C 32,24.835821 24.835821,31.973466 16,31.973466 7.164179,31.973466 0,24.835821 0,16 0,7.164179 7.164179,0.026534 16,0.026534 24.835821,0.026534 32,7.164179 32,16 l 0,0 z"/><path id="path3351" fill="#cd244a" d="M 15.722656 31.945312 C 15.817245 31.946955 15.905018 31.972656 16 31.972656 C 17.104478 31.972656 18.183098 31.862818 19.224609 31.650391 C 20.266121 31.437963 21.271426 31.12431 22.228516 30.720703 C 23.185605 30.317096 24.0941 29.823539 24.945312 29.25 C 25.796525 28.676461 26.588619 28.023003 27.3125 27.300781 C 28.036381 26.578559 28.692485 25.787158 29.267578 24.9375 C 29.842671 24.087842 30.337337 23.178502 30.742188 22.222656 C 30.98075 21.659414 31.119439 21.049329 31.292969 20.455078 L 25.095703 14.257812 L 23.917969 14.257812 L 19.732422 10.072266 C 19.641922 9.9817652 19.506513 9.8904658 19.416016 9.7773438 C 19.302893 9.8904657 19.19092 9.9817682 19.123047 10.072266 C 19.032547 10.162766 18.986328 10.252599 18.986328 10.433594 L 19.212891 10.660156 L 18.962891 10.660156 L 18.962891 11 L 18.488281 10.525391 L 18.488281 10.541016 L 18.488281 10.546875 L 18.962891 11.021484 L 18.962891 11.677734 L 18.171875 10.886719 C 18.104005 10.818849 18.013186 10.751467 17.945312 10.683594 C 17.877443 10.751464 17.786623 10.84147 17.71875 10.886719 C 17.65088 10.954589 17.628906 11.022783 17.628906 11.113281 L 17.855469 11.339844 L 17.605469 11.339844 L 17.605469 12.130859 L 17.605469 12.470703 L 17.832031 12.697266 L 15.853516 12.697266 L 13.974609 10.818359 C 13.929359 10.773109 13.873374 10.728841 13.828125 10.683594 C 13.760255 10.751464 13.669435 10.84147 13.601562 10.886719 C 13.578862 10.90942 13.578724 10.939342 13.564453 10.962891 L 12.673828 10.072266 C 12.583328 9.9817652 12.470544 9.8904658 12.357422 9.7773438 C 12.2443 9.8904657 12.130374 9.9817682 12.0625 10.072266 C 11.972 10.162766 11.927734 10.252599 11.927734 10.433594 L 12.154297 10.660156 L 11.904297 10.660156 L 11.904297 12.470703 L 12.130859 12.697266 L 11.904297 12.697266 L 11.904297 14.123047 C 11.904297 14.145667 11.927734 14.145339 11.927734 14.167969 L 11.927734 14.505859 L 12.132812 14.710938 L 12.109375 14.710938 L 11.679688 14.28125 L 6.9042969 14.28125 L 6.9042969 14.505859 L 7.1308594 14.732422 L 7.1308594 16.089844 L 7.3808594 16.339844 L 6.6796875 16.339844 L 6.6796875 16.791016 L 7.1308594 17.242188 L 7.1308594 17.900391 L 7.3789062 18.148438 L 7.1308594 18.148438 L 7.1308594 18.828125 L 7.3574219 19.054688 L 7.1308594 19.054688 L 7.1308594 19.732422 L 7.3574219 19.958984 L 7.1308594 19.958984 L 7.1308594 20.638672 L 7.3554688 20.863281 L 7.1308594 20.863281 L 7.1308594 21.316406 L 7.3574219 21.542969 L 6 21.542969 L 6 22.222656 L 15.722656 31.945312 z "/><path id="path9" fill="#fff" stroke="#646464" stroke-miterlimit="282" stroke-width=".028" d="m 12.357466,9.778283 c -0.113122,0.113122 -0.226244,0.20362 -0.294118,0.294117 -0.0905,0.0905 -0.135746,0.180996 -0.135746,0.361991 l 0.882353,0 c 0,-0.158371 -0.04525,-0.271493 -0.135747,-0.361991 -0.0905,-0.0905 -0.20362,-0.180995 -0.316742,-0.294117 l 0,0 z m 7.058824,0 c -0.113123,0.113122 -0.226245,0.20362 -0.294118,0.294117 -0.0905,0.0905 -0.135747,0.180996 -0.135747,0.361991 l 0.882353,0 c 0,-0.158371 -0.04525,-0.271493 -0.135746,-0.361991 -0.0905,-0.0905 -0.226245,-0.180995 -0.316742,-0.294117 l 0,0 z m -0.927602,0.746606 c 0,0.02262 0,0.02262 0,0 0,0.02262 0,0.02262 0,0.02262 0,0 0,0 0,-0.02262 l 0,0 z m -6.583711,0.135747 0,1.809954 0.904978,0 0,-1.809954 -0.904978,0 0,0 z m 7.058824,0 0,1.809954 0.904977,0 0,-1.809954 -0.904977,0 0,0 z m -5.135747,0.02262 c -0.06787,0.06787 -0.158371,0.158371 -0.226244,0.20362 -0.06787,0.06787 -0.0905,0.135745 -0.113122,0.226243 l 0.656109,0 c 0,-0.0905 -0.04525,-0.15837 -0.113123,-0.226243 -0.04525,-0.06787 -0.135746,-0.135747 -0.20362,-0.20362 l 0,0 z m 4.117647,0 c -0.06787,0.06787 -0.158371,0.158371 -0.226244,0.20362 -0.06787,0.06787 -0.0905,0.135745 -0.0905,0.226243 l 0.656109,0 c 0,-0.0905 -0.04525,-0.15837 -0.113122,-0.226243 -0.06787,-0.06787 -0.158372,-0.135747 -0.226245,-0.20362 l 0,0 z m -5.723982,0.407239 c 0.02262,0 0.02262,0 0,0 0.0905,0 0.158371,0.06787 0.135747,0.113122 l 0,0.339366 0.113122,0 c 0.06787,0 0.113122,0.04525 0.113122,0.113123 0,0.06787 -0.06787,0.113122 -0.113122,0.113122 l -0.248869,0 c -0.06787,0 -0.113122,-0.04525 -0.113122,-0.113122 l 0,-0.452489 c 0.02262,-0.04525 0.06787,-0.0905 0.113122,-0.113122 l 0,0 z m 7.285068,0 c 0,0 0,0 0,0 0.06787,0 0.135747,0.06787 0.135747,0.113122 l 0,0.452489 c 0,0.06787 -0.06787,0.113122 -0.113122,0.113122 l -0.226245,0 c -0.06787,0 -0.113122,-0.04525 -0.113122,-0.113122 0,-0.06787 0.06787,-0.113123 0.113122,-0.113123 l 0.113123,0 0,-0.339366 c 0,-0.04525 0.04525,-0.0905 0.0905,-0.113122 l 0,0 z m -6.018099,0.248869 0,1.131221 0.248869,0 0,-0.339366 c 0,-0.04525 0.02262,-0.0905 0.06787,-0.113122 0.06787,-0.02262 0.158371,0.04525 0.158371,0.113122 l 0,0.339366 0.226245,0 0,-1.131221 -0.701357,0 0,0 z m 4.117647,0 0,0.791855 0,0.339366 0.226244,0 0,-0.339366 c 0,-0.04525 0.02262,-0.0905 0.0905,-0.113122 0.06787,-0.02262 0.158371,0.04525 0.158371,0.113122 l 0,0.339366 0.226244,0 0,-0.339366 c 0,-0.02262 0,-0.02262 0,-0.04525 l 0,-0.746606 -0.701357,0 0,0 z m -5.701358,1.357466 0,1.425339 c 0,0.02262 0.02262,0.02262 0.02262,0.04525 l 0,0.339366 0.226245,0 0,-1.809955 -0.248869,0 0,0 z m 0.475113,0 0,1.809955 0.452489,0 0,-1.809955 -0.452489,0 0,0 z m 0.678734,0 0,1.809955 5.678732,0 0,-1.809955 -5.678732,0 0,0 z m 5.904977,0 0,1.809955 0.452489,0 0,-1.809955 -0.452489,0 0,0 z m 0.678733,0 0,1.809955 0.226244,0 0,-0.339367 c 0,-0.02262 0,-0.02262 0,-0.02262 l 0,-1.447964 -0.226244,0 0,0 z m -12.737557,1.58371 0,0.226245 4.773756,0 0,-0.226245 -4.773756,0 0,0 z m 13.190046,0 0,0.226245 0.384615,0 4.502262,0 c 0,0 0.02262,0 0.02262,0 l 0.0905,0 0,-0.06787 c -0.02262,-0.02262 -0.02262,-0.06787 0,-0.113122 l 0,-0.06787 -5,0 0,0.02262 z m -8.167421,0.452489 0,1.470589 c 0,0.02262 0,0.02262 -0.02262,0.02262 l 0,0.02262 0,0.497737 0.248868,0 0,-2.036199 -0.226244,0 0,0.02262 z m 0.452488,0 0,2.036199 0.452489,0 0,-2.036199 -0.452489,0 0,0 z m 0.678734,0 0,2.036199 0.339366,0 c 0.04525,0 0.0905,0.02262 0.113122,0.06787 l 0,-0.633484 c 0,-0.04525 0.04525,-0.113122 0.0905,-0.113122 0,0 0.02262,0 0.02262,0 l 4.773756,0 c 0.06787,0 0.113122,0.06787 0.113122,0.113122 l 0,0.633484 c 0.02262,-0.04525 0.06787,-0.06787 0.113122,-0.06787 0,0 0,0 0.02262,0 l 0.113122,0 0,-2.036199 -5.701357,0 0,0 z m 5.904977,0 0,2.036199 0.452489,0 0,-2.036199 -0.452489,0 0,0 z m 0.678733,0 0,2.036199 0.226244,0 0,-0.542986 c 0,0 0,-0.02262 0,-0.02262 0,0 0,-0.02262 0,-0.02262 l 0,-1.470589 -0.226244,0 0,0.02262 z m -12.511313,0 0,1.357466 4.547512,0 0,-1.357466 -4.547512,0 0,0 z m 12.963802,0 0,1.357466 4.773755,0 0,-1.357466 -4.773755,0 0,0 z m -13.41629,1.606335 0,0.452489 5,0 0,-0.452489 -5,0 0,0 z m 7.058824,0 0,4.999999 0.452488,0 0,-2.262443 c 0,-0.06787 0.02262,-0.0905 0.04525,-0.113122 0.02262,-0.02262 0.04525,-0.04525 0.06787,-0.06787 0.04525,-0.02262 0.06787,-0.06787 0.113122,-0.0905 0,-0.746606 0.113121,-1.289592 0.36199,-1.651583 0.271493,-0.384616 0.678733,-0.542987 1.22172,-0.542987 0.542986,0 0.927602,0.271493 1.17647,0.701358 0.226245,0.40724 0.339367,0.950226 0.429865,1.515836 0.04525,0.02262 0.06787,0.06787 0.113122,0.0905 0.02262,0.02262 0.04525,0.04525 0.06787,0.06787 0.02262,0.02262 0.04525,0.06787 0.04525,0.113122 l 0,2.285068 0.452489,0 0,-5.045248 -4.547511,0 0,0 z m 6.357466,0 0,0.452489 5.226244,0 0,-0.452489 -0.339367,0 -4.886877,0 0,0 z m -2.398191,0.20362 c 0.180996,0 0.339367,0.158371 0.339367,0.339367 0,0.180995 -0.158371,0.339366 -0.339367,0.339366 -0.180995,0 -0.339366,-0.158371 -0.339366,-0.339366 0.02262,-0.180996 0.158371,-0.339367 0.339366,-0.339367 l 0,0 z m -3.393664,0.02262 c 0.180995,0 0.339365,0.158371 0.339365,0.339367 0,0.180995 -0.15837,0.339366 -0.339365,0.339366 -0.180996,0 -0.339367,-0.158371 -0.339367,-0.339366 0,-0.20362 0.158371,-0.339367 0.339367,-0.339367 l 0,0 z M 16,16.769231 c -0.475114,0 -0.81448,0.135747 -1.0181,0.452489 -0.226244,0.316742 -0.339367,0.837104 -0.339367,1.583709 0,0.02262 -0.02262,0.06787 -0.02262,0.0905 -0.04525,0.04525 -0.113122,0.0905 -0.15837,0.135747 -0.02262,0.02262 -0.02262,0.02262 -0.04525,0.04525 l 0,2.239819 0.226243,0 0,-1.357466 c 0,-0.06787 0.02262,-0.0905 0.06787,-0.113122 0.02262,-0.02262 0.04525,-0.02262 0.06787,-0.04525 0.02262,-0.02263 0.04525,0 0.06787,-0.02263 0.02262,-0.520362 0.113122,-0.972851 0.316742,-1.312217 0.20362,-0.339366 0.497738,-0.565611 0.859729,-0.565611 0.361991,0 0.678733,0.226245 0.882353,0.565611 0.20362,0.339366 0.294117,0.76923 0.316742,1.312217 0.02262,0.02263 0.04525,0 0.04525,0.02263 0.02262,0.02262 0.04525,0.02262 0.06787,0.04525 0.02262,0.02262 0.06787,0.04525 0.06787,0.113122 l 0,1.357466 0.226244,0 0,-2.239819 c 0,0 -0.02262,-0.02262 -0.02262,-0.02262 -0.04525,-0.04525 -0.113122,-0.0905 -0.158371,-0.158371 -0.02262,-0.02262 -0.02262,-0.04525 -0.02262,-0.06787 -0.06788,-0.588242 -0.180997,-1.108604 -0.407242,-1.470595 -0.248869,-0.361991 -0.542986,-0.588235 -1.018099,-0.588235 l 0,0 z m 1.696832,0 c -0.06787,0 -0.113122,0.04525 -0.113122,0.113122 0,0.06787 0.04525,0.113122 0.113122,0.113122 0.06787,0 0.113123,-0.04525 0.113123,-0.113122 0,-0.06787 -0.04525,-0.113122 -0.113123,-0.113122 l 0,0 z m -3.393664,0.02262 c -0.06787,0 -0.113123,0.04525 -0.113123,0.113122 0,0.06787 0.04525,0.113122 0.113123,0.113122 0.06787,0 0.113122,-0.04525 0.113122,-0.113122 -0.02262,-0.06787 -0.06787,-0.113122 -0.113122,-0.113122 l 0,0 z m -0.81448,0.135747 c -0.02262,0.04525 -0.06787,0.0905 -0.113122,0.06787 l -0.0905,0 0,4.321266 0.226244,0 0,-4.389135 -0.02262,0 z m 5.022624,0 0,4.389139 0.226244,0 0,-4.321263 -0.113122,0 c -0.04525,0 -0.113122,-0.02262 -0.113122,-0.06787 l 0,0 z m -6.832579,0.06787 0,4.321266 0.226244,0 0,-4.321261 -0.06787,0 c 0,0 -0.02262,0 -0.02262,0 l -0.135747,0 0,0 z m 0.452489,0 0,4.321266 0.452488,0 0,-4.321261 -0.452488,0 0,0 z m 0.701357,0 0,4.321266 0.226245,0 0,-4.321261 -0.226245,0 0,0 z m 6.131222,0 0,4.321266 0.226244,0 0,-4.321261 -0.226244,0 0,0 z m 0.452489,0 0,4.321266 0.452488,0 0,-4.321261 -0.452488,0 0,0 z m 0.678733,0 0,4.321266 0.226244,0 0,-4.321261 -0.226244,0 0,0 z m -12.963802,0 0,0.904978 0.904978,0 0,-0.316742 0,-0.113123 0.113122,0 2.963801,0 0.135747,0 0,0.113123 0,3.73303 0.226244,0 0,-4.321261 -4.343892,0 0,0 z m 13.41629,0 0,4.321266 0.226245,0 0,-3.73303 0,-0.113123 0.113122,0 2.9638,0 0.113123,0 0,0.113123 0,0.339366 0.904977,0 0,-0.904977 -4.321267,0 0,-0.02262 z m -12.262444,0.701358 0,3.642533 0.248869,0 0,-1.877828 c 0,-0.06787 0.02262,-0.0905 0.04525,-0.113122 0.02262,-0.02262 0.02262,-0.02262 0.04525,-0.04525 0,0 0.02262,0 0.02262,0 0.04525,-0.678733 0.475113,-1.199094 0.995476,-1.199094 0.520362,0 0.950226,0.497736 0.995475,1.199094 0,0 0.02262,0 0.02262,0 0.02262,0.02262 0.02262,0.02262 0.04525,0.04525 0.02262,0.02262 0.06787,0.02262 0.06787,0.113122 l 0,1.877828 0.248869,0 0,-3.642533 -2.737557,0 0,0 z m 12.714933,0 0,3.642533 0.248869,0 0,-1.877828 c 0,-0.06787 0.02262,-0.0905 0.04525,-0.113122 0.02262,-0.02262 0.02262,-0.02262 0.04525,-0.04525 0,0 0.02262,0 0.02262,0 0.04525,-0.678733 0.475113,-1.199094 0.995475,-1.199094 0.520362,0 0.950226,0.497736 0.995475,1.199094 0,0 0.02262,0 0.02262,0 0.02262,0.02262 0.02262,0.02262 0.04525,0.04525 0.02262,0.02262 0.06787,0.02262 0.06787,0.113122 l 0,1.877828 0.248869,0 0,-3.642533 -2.737556,0 0,0 z m -5,0.429869 c -0.271494,0 -0.497738,0.158371 -0.678734,0.452488 -0.180995,0.294117 -0.294117,0.746606 -0.294117,1.289593 0,0.06787 -0.04525,0.113122 -0.113122,0.113122 0.02262,0 -0.02262,0 -0.04525,0.02262 0,0 0,0 0,0.02262 l 0,1.289593 1.493213,0 0.791855,0 0,-1.312218 c 0,0 0,0 0,-0.02262 -0.02262,-0.02263 -0.06787,-0.02263 -0.04525,-0.02263 -0.06787,0 -0.113123,-0.04525 -0.113123,-0.113122 0,-0.542986 -0.113122,-0.972851 -0.294117,-1.289592 -0.203617,-0.271493 -0.429861,-0.429864 -0.701354,-0.429864 l 0,0 z m -8.868779,0.02262 0,0.678732 0.904978,0 0,-0.678732 -0.904978,0 0,0 z m 16.83258,0 0,0.678732 0.904977,0 0,-0.678732 -0.904977,0 0,0 z M 9.642534,18.330311 c -0.384616,0 -0.769231,0.407238 -0.769231,1.063347 0,0.06787 -0.06787,0.113122 -0.113123,0.113122 l 0,0 0,1.809955 0.452489,0 0,-0.972845 c 0,-0.04525 0.02262,-0.06787 0.04525,-0.0905 0,0 0.02262,-0.02262 0.02262,-0.02262 0.02262,-0.135746 0.04525,-0.271493 0.0905,-0.36199 0.06787,-0.113123 0.180995,-0.20362 0.316742,-0.20362 0.135746,0 0.248869,0.0905 0.316742,0.20362 0.04525,0.0905 0.06787,0.226244 0.06787,0.36199 0.02262,0 0.02262,0.02262 0.02262,0.02262 0.02262,0.02262 0.04525,0.02262 0.04525,0.0905 l 0,0.97285 0.452489,0 0,-1.809955 0,0 c -0.06787,0 -0.113122,-0.04525 -0.113122,-0.113122 -0.04525,-0.656109 -0.452489,-1.063347 -0.837105,-1.063347 l 0,0 z m 12.737556,0 c -0.384615,0 -0.791854,0.407238 -0.791854,1.063347 0,0.06787 -0.06787,0.113122 -0.113123,0.113122 l 0,0 0,1.809955 0.452489,0 0,-0.972845 c 0,-0.06787 0.02262,-0.06787 0.04525,-0.0905 0,0 0.02262,-0.02262 0.02262,-0.02262 0.02262,-0.135746 0.02262,-0.248868 0.06787,-0.36199 0.06787,-0.113123 0.180996,-0.20362 0.316742,-0.20362 0.135747,0 0.248869,0.0905 0.316743,0.20362 0.04525,0.0905 0.06787,0.226244 0.06787,0.36199 0.02262,0 0.02262,0 0.02262,0.02262 0.02262,0.02262 0.04525,0.04525 0.04525,0.0905 l 0,0.97285 0.452489,0 0,-1.809955 0,0 c -0.06787,0 -0.113123,-0.04525 -0.113123,-0.113122 -0.02262,-0.656109 -0.40724,-1.063347 -0.791855,-1.063347 l 0,0 z m -15.248869,0.72398 0,0.678734 0.904978,0 0,-0.678734 -0.904978,0 0,0 z m 16.83258,0 0,0.678734 0.904977,0 0,-0.678734 -0.904977,0 0,0 z M 9.642534,19.891396 c -0.04525,0 -0.06787,0.02262 -0.113123,0.0905 -0.02262,0.06787 -0.06787,0.20362 -0.06787,0.339366 0,0.04525 -0.02262,0.06787 -0.04525,0.0905 l 0,0.904977 0.180996,0 0.271493,0 0,-0.904977 c -0.02262,-0.02262 -0.04525,-0.04525 -0.04525,-0.0905 0,-0.158371 -0.02262,-0.271493 -0.04525,-0.339366 -0.04525,-0.06787 -0.0905,-0.0905 -0.135747,-0.0905 l 0,0 z m 12.714932,0 c -0.04525,0 -0.06787,0.02262 -0.113123,0.0905 -0.02262,0.06787 -0.06787,0.20362 -0.06787,0.339366 0,0.04525 -0.02262,0.06787 -0.04525,0.0905 l 0,0.904977 0.248869,0 0.20362,0 0,-0.904977 c -0.02262,-0.02262 -0.04525,-0.02262 -0.04525,-0.06787 0,-0.158371 -0.02262,-0.271493 -0.06787,-0.339366 -0.02262,-0.0905 -0.06787,-0.113123 -0.113122,-0.113123 l 0,0 z m -15.226245,0.06787 0,0.678733 0.904978,0 0,-0.678733 -0.904978,0 0,0 z m 16.83258,0 0,0.678733 0.904977,0 0,-0.678733 -0.904977,0 0,0 z m -16.83258,0.904977 0,0.452489 0.904978,0 0,-0.452489 -0.904978,0 0,0 z m 16.83258,0 0,0.452489 0.904977,0 0,-0.452489 -0.904977,0 0,0 z M 6,21.542984 l 0,0.678733 20,0 0,-0.678733 -8.733032,0 -0.904977,0 -10.361991,0 0,0 z"/></g></svg>