<svg xmlns="http://www.w3.org/2000/svg" id="Layer_1" width="32" height="32" version="1" viewBox="0 0 32 32"><g id="g5483"><path id="path7" fill="#ffcc0f" d="M 32,16 C 32,24.835821 24.835821,31.973466 16,31.973466 7.164179,31.973466 0,24.835821 0,16 0,7.164179 7.164179,0.026534 16,0.026534 24.835821,0.026534 32,7.164179 32,16 l 0,0 z"/><path id="path3351" fill="#ffa720" d="M 18.140625 31.759766 C 18.498694 31.711562 18.874462 31.721807 19.224609 31.650391 C 20.266121 31.437963 21.271426 31.12431 22.228516 30.720703 C 23.185605 30.317096 24.0941 29.823539 24.945312 29.25 C 25.796525 28.676461 26.588619 28.023003 27.3125 27.300781 C 28.036381 26.578559 28.692485 25.787158 29.267578 24.9375 C 29.682591 24.324349 30.004121 23.648506 30.332031 22.978516 L 22.810547 15.457031 C 22.806733 15.460845 22.802629 15.46491 22.798828 15.46875 L 22.628906 15.298828 C 22.494218 15.306749 22.365467 15.321493 22.236328 15.335938 L 21.113281 14.212891 C 21.094327 14.216881 21.077376 14.222399 21.058594 14.226562 L 19.6875 12.855469 L 19.642578 12.855469 C 18.819696 13.080782 18.178744 13.5331 17.681641 14.039062 L 16.023438 12.380859 C 15.231583 12.584479 14.507016 13.081687 13.941406 13.669922 C 13.375795 14.258157 12.968918 14.936996 12.810547 15.412109 L 13.619141 16.220703 L 13.644531 16.382812 L 13.398438 16.136719 C 13.376277 16.136719 13.354191 16.113957 13.332031 16.091797 L 13.330078 16.089844 C 12.379851 15.184866 11.361195 14.777344 10.433594 14.777344 C 10.275223 14.777344 10.139652 14.778161 10.003906 14.800781 C 10.146277 14.940057 10.258471 15.077088 10.382812 15.214844 C 10.497114 15.341448 10.623193 15.468148 10.724609 15.59375 C 10.833463 15.728581 10.924789 15.862096 11.021484 15.996094 C 11.098968 16.103471 11.184575 16.211324 11.255859 16.318359 C 11.295282 16.377542 11.323462 16.436975 11.361328 16.496094 L 10.095703 15.230469 L 9.8691406 15.003906 C 9.8465206 15.003906 9.8468487 14.982422 9.8242188 14.982422 C 9.6658476 15.932649 9.6419269 16.860321 9.7324219 17.810547 L 9.9589844 18.037109 L 9.7773438 18.037109 L 9.1445312 18.261719 L 9.3496094 18.466797 L 8.4882812 18.466797 L 7.8320312 18.691406 L 8.0820312 18.941406 L 6 18.941406 L 6 19.619141 L 18.140625 31.759766 z "/><path id="path9" fill="#fff" d="m 16.022624,12.380094 c -0.791855,0.20362 -1.515837,0.701358 -2.081447,1.289593 -0.565611,0.588235 -0.972851,1.266968 -1.131222,1.742081 0.180995,0.113122 0.339366,0.248869 0.520362,0.40724 l -0.04525,-0.339367 c -0.02262,-0.04525 -0.02262,-0.0905 0,-0.113122 0,0 0,0 0,0 0.02262,-0.02262 0.04525,-0.02262 0.06787,-0.04525 0,0 0.02262,0 0.02262,0 1.131221,-0.0905 2.058823,0.135747 2.850678,0.497738 0.0905,-0.248869 0.248869,-0.542987 0.429864,-0.859729 l -0.271493,-1.063347 c -0.02262,-0.02262 -0.02262,-0.06787 -0.02262,-0.0905 l -0.339366,-1.42534 0,0 z m 3.61991,0.475113 c -1.900453,0.520362 -2.873304,2.239819 -3.190046,3.076923 0.882353,0.452489 1.651584,1.063348 2.488688,1.628959 0,0 0.02262,0 0.02262,0.02262 l 0.452489,0 0.02262,0 0.248869,-0.04525 0,-0.02262 0,-4.660634 -0.04525,0 z m -3.00905,1.085973 0.180995,0.746606 c 0.135747,-0.203619 0.294118,-0.407239 0.475113,-0.633484 l -0.135746,-0.135746 -0.520362,0 0,0.02262 z m 4.479638,0.271493 c -0.429864,0.0905 -0.814479,0.226245 -1.199095,0.384615 -0.02262,0.02262 -0.02262,0.02262 -0.04525,0.02262 l 0,2.262444 c 0.294117,-0.904978 0.723982,-1.787331 1.244344,-2.669683 l 0,0 z m 0.113123,0.248869 c -0.271494,0.475113 -0.520362,0.950226 -0.723982,1.402714 l 0.927602,1.266969 -0.113123,-1.674208 c -0.04525,-0.04525 -0.04525,-0.113123 -0.02262,-0.158371 l -0.06787,-0.837104 0,0 z m -10.791856,0.316742 c -0.158371,0 -0.294118,0 -0.429864,0.02262 1.040724,1.018099 1.561086,1.99095 2.126697,2.986425 l 1.515837,0 -0.248869,-1.651584 c -0.02262,0 -0.04525,-0.02262 -0.06787,-0.04525 -0.950227,-0.904978 -1.968327,-1.312218 -2.895928,-1.312218 l 0,0 z m -0.61086,0.203619 c -0.158371,0.950227 -0.180995,1.877829 -0.0905,2.828055 0,0 0.02262,0 0.02262,0 l 0.113123,0 0,-2.80543 c -0.02262,0 -0.02262,-0.02262 -0.04525,-0.02262 l 0,0 z m 0.271493,0.248869 0,2.556562 0.226245,0 0,-2.285068 c -0.06787,-0.0905 -0.135747,-0.180996 -0.226245,-0.271494 l 0,0 z m 12.533937,0.06787 c -0.384616,0.02262 -0.746606,0.06787 -1.085972,0.158371 l 0.113122,1.515837 c 0.248869,-0.633484 0.520361,-1.221719 0.97285,-1.674208 l 0,0 z m 0.180995,0.158371 c -0.226244,0.226244 -0.429864,0.497738 -0.588235,0.791855 l 0.588235,0.656109 0,-1.447964 0,0 z m -9.230768,0.0905 0.588235,0.950226 0,0 0,0 0.633483,1.063349 3.733033,0 c -1.470589,-1.040725 -2.760182,-2.104073 -4.954751,-2.013575 l 0,0 z m -3.031675,0.226244 0,2.036199 0.226244,0 0,-1.742081 c -0.06787,-0.113122 -0.158371,-0.20362 -0.226244,-0.294118 l 0,0 z m 3.031675,0.20362 0.271493,1.719457 0.0905,-0.04525 0,-1.085973 -0.361991,-0.588232 0,0 z m 6.809954,0.135747 c -0.20362,0.452488 -0.384615,0.904977 -0.497737,1.38009 l 0.656108,-0.135746 c 0,0 0.02262,0 0.02262,0 l 0.746607,0 -0.927602,-1.244344 0,0 z M 11,16.361992 l 0,1.42534 0.226244,0 0,-1.085973 C 11.158374,16.588237 11.067873,16.475115 11,16.361992 l 0,0 z m 11.108597,0.0905 c -0.135746,0.271493 -0.271493,0.565611 -0.384615,0.882353 l 0.610859,-0.226244 c 0.02262,0 0.02262,0 0.04525,0 l 0.339366,0 -0.61086,-0.656109 0,0 z m -7.918552,0.497738 0,0.633484 c 0,0 0.02262,0 0.02262,0 l 0.361991,0 -0.384615,-0.633484 0,0 z m -2.737556,0.135746 0,0.723982 0.429864,0 C 11.723982,17.56109 11.588235,17.312221 11.452489,17.085976 l 0,0 z m 10.927601,0.248869 -0.633483,0.226245 c -0.02262,0 -0.02262,0 -0.04525,0 l -1.131222,0 -0.02262,0 -1.131222,0.226244 c 0,0 -0.02262,0 -0.02262,0 l -5.180995,0 0,0 -0.361991,0.158371 c 0,0 -0.02262,0 -0.02262,0.02262 l -0.02262,0 c 0,0 0,0 -0.02262,0 l -0.02262,0.02262 c -0.02262,0.02262 -0.04525,0.02262 -0.06787,0.04525 l -1.561086,0.678733 1.153846,0 0,-0.113122 c 0,-0.06787 0.04525,-0.113123 0.113123,-0.113123 0.06787,0 0.113122,0.06787 0.113122,0.113123 l 0,0.113122 0.678733,0 0,-0.113122 c 0,-0.06787 0.04525,-0.113123 0.113122,-0.113123 0.06787,0 0.113122,0.06787 0.113122,0.113123 l 0,0.113122 0.678733,0 0,-0.113122 c 0,-0.06787 0.04525,-0.113123 0.113122,-0.113123 0.06787,0 0.113122,0.06787 0.113122,0.113123 l 0,0.113122 0.678713,0 0,-0.113122 c 0,-0.06787 0.04525,-0.113123 0.113122,-0.113123 0.06787,0 0.113122,0.06787 0.113122,0.113123 l 0,0.113122 0.678733,0 0,-0.113122 c 0,-0.06787 0.04525,-0.113123 0.113122,-0.113123 0.06787,0 0.113122,0.06787 0.113122,0.113123 l 0,0.113122 0.678734,0 0,-0.113122 c 0,-0.06787 0.04525,-0.113123 0.113122,-0.113123 0.06787,0 0.113122,0.06787 0.113122,0.113123 l 0,0.113122 0.678733,0 0,-0.113122 c 0,-0.06787 0.04525,-0.113123 0.113122,-0.113123 0.06787,0 0.113122,0.06787 0.113122,0.113123 l 0,0.113122 0.678734,0 0,-0.113122 c 0,-0.06787 0.04525,-0.113123 0.113122,-0.113123 0.06787,0 0.113122,0.06787 0.113122,0.113123 l 0,0.113122 0.678733,0 0,-0.113122 c 0,-0.06787 0.04525,-0.113123 0.113122,-0.113123 0.06787,0 0.113122,0.06787 0.113122,0.113123 l 0,0.113122 0.678734,0 0,-0.113122 c 0,-0.06787 0.04525,-0.113123 0.113122,-0.113123 0.06787,0 0.113122,0.06787 0.113122,0.113123 l 0,0.113122 0.452488,0 c 0.02262,0 0.02262,-0.02262 0.04525,-0.02262 l 1.742082,-0.859729 -0.678733,-0.475113 -0.837104,0 0,-0.02262 z m -12.60181,0.701358 -0.633484,0.226244 2.058824,0 0.497737,-0.226244 -1.923077,0 0,0 z m 2.488688,0 -1.561086,0.678733 0.837104,0 1.583711,-0.678733 -0.859729,0 0,0 z m 1.990951,0 c 0,0 0,0 0,0 0.02262,0 0.04525,0 0.04525,0 l 0.226244,0 c 0.06787,0 0.113122,0.04525 0.113122,0.113122 0,0.06787 -0.06787,0.113122 -0.113122,0.113122 l -0.226244,0 c -0.06787,0.02262 -0.135746,-0.02262 -0.135746,-0.0905 -0.02262,-0.06787 0.02262,-0.135746 0.0905,-0.135746 l 0,0 z m 3.393664,0 c 0,0 0,0 0,0 0.02262,0 0.04525,0 0.04525,0 l 2.262444,0 c 0.06787,0 0.113122,0.04525 0.113122,0.113122 0,0.06787 -0.04525,0.113122 -0.113122,0.113122 l -2.262444,0 c -0.06787,0.02262 -0.135747,-0.02262 -0.135747,-0.0905 0,-0.06787 0.04525,-0.135746 0.0905,-0.135746 l 0,0 z m 2.737557,0 c 0,0 0,0 0,0 0.02262,0 0.04525,0 0.04525,0 l 0.452489,0 c 0.06787,0 0.113122,0.04525 0.113122,0.113122 0,0.06787 -0.04525,0.113122 -0.113122,0.113122 l -0.452489,0 c -0.06787,0.02262 -0.135747,-0.02262 -0.135747,-0.0905 -0.02262,-0.06787 0.02262,-0.135746 0.0905,-0.135746 l 0,0 z m 0.904978,0 c 0,0 0,0 0,0 0.02262,0 0.04525,0 0.04525,0 l 0.226245,0 c 0.06787,0 0.113122,0.04525 0.113122,0.113122 0,0.06787 -0.06787,0.113122 -0.113122,0.113122 l -0.226245,0 c -0.06787,0.02262 -0.135746,-0.02262 -0.135746,-0.0905 -0.02262,-0.06787 0.02262,-0.135746 0.0905,-0.135746 l 0,0 z m 2.647058,0.02262 -1.312217,0.633484 1.312217,0 0,-0.633484 0,0 z m -15.452489,0.40724 -0.656108,0.226244 2.330317,0 0.520362,-0.226244 -2.194571,0 0,0 0,0 z M 6,18.941176 l 0,0.678733 20,0 0,-0.678729 -14.411765,0 c 0,0 -0.02262,0 -0.02262,0 l -5.565611,0 0,0 z"/></g></svg>